<mxfile host="app.diagrams.net" modified="2023-09-05T13:22:36.120Z" agent="Mozilla/5.0 (Macintosh; Intel Mac OS X 10_15_7) AppleWebKit/537.36 (KHTML, like Gecko) Chrome/115.0.0.0 Safari/537.36" etag="X91AxsdHmV37xYw9MfNJ" version="21.6.8" type="github">
  <diagram name="第 1 页" id="SKmNJeaqZ5SWssyZ5TcU">
    <mxGraphModel dx="1242" dy="790" grid="1" gridSize="10" guides="1" tooltips="1" connect="1" arrows="1" fold="1" page="1" pageScale="1" pageWidth="827" pageHeight="1169" math="0" shadow="0">
      <root>
        <mxCell id="0" />
        <mxCell id="1" parent="0" />
        <mxCell id="kdJZE7LNqGD709cGFsJL-5" value="" style="edgeStyle=orthogonalEdgeStyle;rounded=0;orthogonalLoop=1;jettySize=auto;html=1;" parent="1" source="kdJZE7LNqGD709cGFsJL-1" edge="1">
          <mxGeometry relative="1" as="geometry">
            <mxPoint x="314" y="360" as="targetPoint" />
          </mxGeometry>
        </mxCell>
        <mxCell id="kdJZE7LNqGD709cGFsJL-1" value="第三方应用" style="shape=umlActor;verticalLabelPosition=bottom;verticalAlign=top;html=1;outlineConnect=0;" parent="1" vertex="1">
          <mxGeometry x="210" y="330" width="30" height="60" as="geometry" />
        </mxCell>
        <mxCell id="kdJZE7LNqGD709cGFsJL-6" value="" style="edgeStyle=orthogonalEdgeStyle;rounded=0;orthogonalLoop=1;jettySize=auto;html=1;" parent="1" source="kdJZE7LNqGD709cGFsJL-2" edge="1">
          <mxGeometry relative="1" as="geometry">
            <mxPoint x="314" y="210" as="targetPoint" />
          </mxGeometry>
        </mxCell>
        <mxCell id="kdJZE7LNqGD709cGFsJL-2" value="用户" style="shape=umlActor;verticalLabelPosition=bottom;verticalAlign=top;html=1;outlineConnect=0;" parent="1" vertex="1">
          <mxGeometry x="210" y="180" width="30" height="60" as="geometry" />
        </mxCell>
        <mxCell id="kdJZE7LNqGD709cGFsJL-7" value="资源鉴权" style="ellipse;whiteSpace=wrap;html=1;" parent="1" vertex="1">
          <mxGeometry x="314" y="325" width="140" height="70" as="geometry" />
        </mxCell>
        <mxCell id="kdJZE7LNqGD709cGFsJL-8" value="创建授权策略" style="ellipse;whiteSpace=wrap;html=1;" parent="1" vertex="1">
          <mxGeometry x="344" y="35" width="140" height="70" as="geometry" />
        </mxCell>
        <mxCell id="kdJZE7LNqGD709cGFsJL-9" value="策略管理" style="ellipse;whiteSpace=wrap;html=1;" parent="1" vertex="1">
          <mxGeometry x="314" y="175" width="140" height="70" as="geometry" />
        </mxCell>
        <mxCell id="kdJZE7LNqGD709cGFsJL-10" value="删除授权策略" style="ellipse;whiteSpace=wrap;html=1;" parent="1" vertex="1">
          <mxGeometry x="484" y="90" width="140" height="70" as="geometry" />
        </mxCell>
        <mxCell id="kdJZE7LNqGD709cGFsJL-11" value="删除授权策略" style="ellipse;whiteSpace=wrap;html=1;" parent="1" vertex="1">
          <mxGeometry x="530" y="175" width="140" height="70" as="geometry" />
        </mxCell>
        <mxCell id="kdJZE7LNqGD709cGFsJL-12" value="修改授权策略属性" style="ellipse;whiteSpace=wrap;html=1;" parent="1" vertex="1">
          <mxGeometry x="450" y="270" width="140" height="70" as="geometry" />
        </mxCell>
        <mxCell id="kdJZE7LNqGD709cGFsJL-17" value="&amp;lt;&amp;lt;include&amp;gt;&amp;gt;" style="html=1;verticalAlign=bottom;endArrow=open;dashed=1;endSize=8;elbow=vertical;rounded=0;entryX=0.336;entryY=0.957;entryDx=0;entryDy=0;entryPerimeter=0;exitX=0.5;exitY=0;exitDx=0;exitDy=0;" parent="1" source="kdJZE7LNqGD709cGFsJL-9" target="kdJZE7LNqGD709cGFsJL-8" edge="1">
          <mxGeometry x="-0.0097" relative="1" as="geometry">
            <mxPoint x="380" y="170" as="sourcePoint" />
            <mxPoint x="330" y="350" as="targetPoint" />
            <mxPoint as="offset" />
          </mxGeometry>
        </mxCell>
        <mxCell id="kdJZE7LNqGD709cGFsJL-18" value="&amp;lt;&amp;lt;include&amp;gt;&amp;gt;" style="html=1;verticalAlign=bottom;endArrow=open;dashed=1;endSize=8;elbow=vertical;rounded=0;entryX=0.043;entryY=0.714;entryDx=0;entryDy=0;entryPerimeter=0;exitX=1;exitY=0;exitDx=0;exitDy=0;" parent="1" source="kdJZE7LNqGD709cGFsJL-9" target="kdJZE7LNqGD709cGFsJL-10" edge="1">
          <mxGeometry x="-0.0097" relative="1" as="geometry">
            <mxPoint x="394" y="185" as="sourcePoint" />
            <mxPoint x="401" y="112" as="targetPoint" />
            <mxPoint as="offset" />
          </mxGeometry>
        </mxCell>
        <mxCell id="kdJZE7LNqGD709cGFsJL-19" value="&amp;lt;&amp;lt;include&amp;gt;&amp;gt;" style="html=1;verticalAlign=bottom;endArrow=open;dashed=1;endSize=8;elbow=vertical;rounded=0;entryX=0;entryY=0.5;entryDx=0;entryDy=0;exitX=1;exitY=0.5;exitDx=0;exitDy=0;" parent="1" source="kdJZE7LNqGD709cGFsJL-9" target="kdJZE7LNqGD709cGFsJL-11" edge="1">
          <mxGeometry x="-0.0097" relative="1" as="geometry">
            <mxPoint x="404" y="195" as="sourcePoint" />
            <mxPoint x="411" y="122" as="targetPoint" />
            <mxPoint as="offset" />
          </mxGeometry>
        </mxCell>
        <mxCell id="kdJZE7LNqGD709cGFsJL-20" value="&amp;lt;&amp;lt;include&amp;gt;&amp;gt;" style="html=1;verticalAlign=bottom;endArrow=open;dashed=1;endSize=8;elbow=vertical;rounded=0;entryX=0;entryY=0;entryDx=0;entryDy=0;exitX=1;exitY=1;exitDx=0;exitDy=0;" parent="1" source="kdJZE7LNqGD709cGFsJL-9" target="kdJZE7LNqGD709cGFsJL-12" edge="1">
          <mxGeometry x="-0.0097" relative="1" as="geometry">
            <mxPoint x="414" y="205" as="sourcePoint" />
            <mxPoint x="421" y="132" as="targetPoint" />
            <mxPoint as="offset" />
          </mxGeometry>
        </mxCell>
      </root>
    </mxGraphModel>
  </diagram>
</mxfile>
